<?xml version="1.0" standalone="no"?>
<!DOCTYPE svg PUBLIC "-//W3C//DTD SVG 20010904//EN"
 "http://www.w3.org/TR/2001/REC-SVG-20010904/DTD/svg10.dtd">
<svg version="1.0" xmlns="http://www.w3.org/2000/svg"
 width="1000.000000pt" height="1000.000000pt" viewBox="0 0 1000.000000 1000.000000"
 preserveAspectRatio="xMidYMid meet">
<metadata>
Created by potrace 1.14, written by Peter Selinger 2001-2017
</metadata>
<g transform="translate(0.000000,1000.000000) scale(0.100000,-0.100000)"
fill="#000000" stroke="none">
<path d="M3123 8667 l-523 -302 0 -1297 c0 -714 3 -1298 8 -1298 4 0 419 238
922 528 l915 529 3 246 c1 136 1 247 -1 247 -2 0 -316 -180 -698 -401 -382
-221 -700 -403 -707 -406 -10 -4 -12 157 -10 802 l3 807 370 214 370 214 1116
0 1117 0 368 -213 369 -213 2 -3014 3 -3015 -370 -212 -369 -213 -1119 0
-1118 0 -370 213 -369 213 -3 361 -2 361 709 408 710 409 1 248 c0 137 -3 246
-7 244 -5 -3 -415 -240 -913 -527 -498 -287 -911 -527 -917 -532 -10 -8 -13
-143 -13 -613 l0 -602 523 -301 524 -302 1246 0 1247 0 517 299 518 299 3
3260 2 3259 -522 302 -523 301 -1245 -1 -1245 0 -522 -302z"/>
<path d="M3520 5721 l-915 -529 -3 -242 c-2 -207 0 -241 12 -238 8 2 424 239
925 528 l910 525 1 243 c0 133 -3 242 -7 242 -5 0 -420 -238 -923 -529z"/>
<path d="M3534 4666 c-496 -287 -909 -528 -918 -535 -14 -12 -16 -41 -14 -250
2 -130 7 -235 11 -235 5 1 420 239 923 529 l914 528 0 243 c0 134 -3 244 -7
243 -5 -1 -414 -236 -909 -523z"/>
</g>
</svg>
